<mxfile host="app.diagrams.net" modified="2023-10-10T16:47:18.199Z" agent="Mozilla/5.0 (Windows NT 10.0; Win64; x64) AppleWebKit/537.36 (KHTML, like Gecko) Chrome/117.0.0.0 Safari/537.36" etag="Q2kW4vi-e8yLYFuWppby" version="21.8.2" type="device">
  <diagram name="Page-1" id="-clLf1eDEEkG6juFfl46">
    <mxGraphModel dx="969" dy="1599" grid="1" gridSize="10" guides="1" tooltips="1" connect="1" arrows="1" fold="1" page="1" pageScale="1" pageWidth="850" pageHeight="1100" math="0" shadow="0">
      <root>
        <mxCell id="0" />
        <mxCell id="1" parent="0" />
        <mxCell id="Fi1VEAa8KatOQCvsPIws-4" style="edgeStyle=orthogonalEdgeStyle;rounded=0;orthogonalLoop=1;jettySize=auto;html=1;exitX=1;exitY=0.5;exitDx=0;exitDy=0;entryX=0;entryY=0.5;entryDx=0;entryDy=0;" edge="1" parent="1" source="Fi1VEAa8KatOQCvsPIws-1" target="Fi1VEAa8KatOQCvsPIws-3">
          <mxGeometry relative="1" as="geometry" />
        </mxCell>
        <mxCell id="Fi1VEAa8KatOQCvsPIws-1" value="&lt;font style=&quot;font-size: 25px;&quot;&gt;&lt;b&gt;User Data&lt;/b&gt;&lt;/font&gt;" style="whiteSpace=wrap;html=1;aspect=fixed;strokeColor=default;fillColor=#4B14FF;" vertex="1" parent="1">
          <mxGeometry x="100" y="70" width="160" height="160" as="geometry" />
        </mxCell>
        <mxCell id="Fi1VEAa8KatOQCvsPIws-5" style="edgeStyle=orthogonalEdgeStyle;rounded=0;orthogonalLoop=1;jettySize=auto;html=1;" edge="1" parent="1" source="Fi1VEAa8KatOQCvsPIws-3">
          <mxGeometry relative="1" as="geometry">
            <mxPoint x="400" y="40" as="targetPoint" />
          </mxGeometry>
        </mxCell>
        <mxCell id="Fi1VEAa8KatOQCvsPIws-3" value="&lt;font style=&quot;font-size: 21px;&quot;&gt;&lt;b&gt;Encrypt&lt;/b&gt;&lt;/font&gt;" style="shape=hexagon;perimeter=hexagonPerimeter2;whiteSpace=wrap;html=1;fixedSize=1;fillColor=#FF2B5D;" vertex="1" parent="1">
          <mxGeometry x="340" y="110" width="120" height="80" as="geometry" />
        </mxCell>
        <mxCell id="Fi1VEAa8KatOQCvsPIws-8" value="&lt;font style=&quot;font-size: 30px;&quot;&gt;&lt;b&gt;key&lt;/b&gt;&lt;/font&gt;" style="shape=note;whiteSpace=wrap;html=1;backgroundOutline=1;darkOpacity=0.05;fillColor=#AEFFA8;" vertex="1" parent="1">
          <mxGeometry x="360" y="-60" width="80" height="100" as="geometry" />
        </mxCell>
      </root>
    </mxGraphModel>
  </diagram>
</mxfile>
